# xmcd
#
# Track frame offsets: 
#        150
#        15659
#        30247
#        48440
#        63207
#        81305
#        100999
#        122933
#        146607
#        157648
#        168763
#        194717
#        213698
#
# Disc length: 3016 seconds
#
# Revision: 0
# Processed by: cddbd v1.5.1PL0 Copyright (c) Steve Scherf et al.
# Submitted via: ExactAudioCopy v0.95b2
#
DISCID=ab0bc60d
DTITLE=Uncle John and Cousin Greg - Indiana Line
DYEAR=2005
DGENRE=Country
TTITLE0=Not For Me
TTITLE1=Indiana Line
TTITLE2=Give Us a Song
TTITLE3=Sweet and Tender Love
TTITLE4=What Do I Do with the Moon
TTITLE5=Honky Tonk Stardust Cowboy
TTITLE6=My Senorita
TTITLE7=Misty Rain
TTITLE8=Before I Met You
TTITLE9=Hillbilly Shuffle
TTITLE10=Andersonville
TTITLE11=Ma and Pa's Waltz
TTITLE12=Four Times Blue
EXTD=
EXTT0=
EXTT1=
EXTT2=
EXTT3=
EXTT4=
EXTT5=
EXTT6=
EXTT7=
EXTT8=
EXTT9=
EXTT10=
EXTT11=
EXTT12=
PLAYORDER=
